<svg width="48" height="28" viewBox="0 0 48 28" fill="none" xmlns="http://www.w3.org/2000/svg">
<path d="M1.72592 1.52549C2.38227 0.869337 3.27235 0.500732 4.20042 0.500732C5.1285 0.500732 6.01858 0.869337 6.67492 1.52549L23.9999 18.8505L41.3249 1.52549C41.985 0.887932 42.8691 0.53515 43.7868 0.543125C44.7045 0.551099 45.5824 0.919192 46.2313 1.56812C46.8802 2.21705 47.2483 3.09489 47.2563 4.01258C47.2643 4.93027 46.9115 5.81438 46.2739 6.47448L26.4744 26.274C25.8181 26.9301 24.928 27.2987 23.9999 27.2987C23.0718 27.2987 22.1818 26.9301 21.5254 26.274L1.72592 6.47448C1.06978 5.81814 0.701172 4.92806 0.701172 3.99998C0.701172 3.07191 1.06978 2.18183 1.72592 1.52549Z" fill="currentColor"/>
</svg>
