<svg width="120" height="120" viewBox="0 0 120 120" fill="none" xmlns="http://www.w3.org/2000/svg">
<g clip-path="url(#clip0_26_189)">
<path d="M98.8879 87.4347L13.3 69.2424C11.6112 68.8835 10.5341 67.2248 10.893 65.536L22.5881 10.5152C22.947 8.82637 24.6057 7.74925 26.2945 8.10822L111.882 26.3005C113.571 26.6595 114.648 28.3181 114.289 30.0069L102.594 85.0277C102.235 86.7166 100.577 87.7937 98.8879 87.4347Z" fill="url(#paint0_linear_26_189)"/>
<path opacity="0.3" d="M98.8879 87.4347L13.3 69.2424C11.6112 68.8835 10.5341 67.2248 10.893 65.536L22.5881 10.5152C22.947 8.82637 24.6057 7.74925 26.2945 8.10822L111.882 26.3005C113.571 26.6595 114.648 28.3181 114.289 30.0069L102.594 85.0277C102.235 86.7166 100.577 87.7937 98.8879 87.4347Z" fill="url(#paint1_linear_26_189)"/>
<path opacity="0.3" d="M98.9033 87.4381L13.3154 69.2459C11.6266 68.8869 10.5494 67.2283 10.9084 65.5394L22.6034 10.5186C22.9624 8.82979 24.6211 7.75267 26.3099 8.11164L111.898 26.3039C113.587 26.6629 114.664 28.3215 114.305 30.0103L102.61 85.0311C102.251 86.72 100.585 87.7955 98.9033 87.4381Z" fill="url(#paint2_linear_26_189)"/>
<path d="M28.0518 14.8713L46.392 18.7697L45.7423 21.8264L27.402 17.928L28.0518 14.8713ZM84.6009 26.8912L96.8278 29.4901L96.178 32.5468L83.9512 29.9479L84.6009 26.8912ZM101.413 30.4647L107.526 31.7642L106.877 34.8209L100.763 33.5214L101.413 30.4647ZM32.216 25.3409L38.3294 26.6404L37.6797 29.6971L31.5663 28.3976L32.216 25.3409ZM24.1534 33.2116L36.3803 35.8105L35.7305 38.8672L23.5037 36.2683L24.1534 33.2116ZM22.2042 42.3817L28.3177 43.6812L27.6679 46.7379L21.5545 45.4385L22.2042 42.3817ZM87.9235 56.3508L97.0937 58.3L96.4439 61.3567L87.2738 59.4075L87.9235 56.3508ZM94.4578 48.1553L103.628 50.1044L102.978 53.1611L93.8081 51.212L94.4578 48.1553ZM20.2551 51.5519L32.4819 54.1508L31.8322 57.2075L19.6053 54.6086L20.2551 51.5519ZM84.446 65.1961L99.7296 68.4447L99.0798 71.5014L83.7963 68.2528L84.446 65.1961ZM93.3502 38.3354L102.52 40.2846L101.871 43.3413L92.7005 41.3921L93.3502 38.3354Z" fill="#76FF03"/>
<path d="M7.18077 96.6792L16.9852 98.7632C17.8557 98.8764 18.7128 98.188 18.9305 97.164L19.0361 96.6673C19.6176 93.9315 18.8957 91.2781 17.3366 89.557C17.3123 89.6716 17.2955 89.7879 17.2712 89.9025C16.6052 93.0356 14.5529 95.2511 12.6959 94.8564C10.839 94.4617 9.86515 91.603 10.5311 88.4698C10.5555 88.3552 10.5875 88.2422 10.6119 88.1276C8.48593 89.0734 6.74882 91.1962 6.16732 93.9319L6.06174 94.4286C5.83481 95.4587 6.33951 96.4285 7.18077 96.6792Z" fill="url(#paint3_linear_26_189)"/>
<path d="M12.6866 94.8624C19.5642 96.3243 16.5959 93.0417 17.2618 89.9085C17.2862 89.7939 17.3029 89.6777 17.3273 89.563C16.5002 88.6444 15.4356 87.9789 14.2053 87.7173C12.975 87.4558 11.7317 87.6309 10.6025 88.1336C10.5705 88.2466 10.5461 88.3613 10.5218 88.4759C9.84818 91.6074 5.7784 93.394 12.6866 94.8624Z" fill="#7600B3"/>
<path d="M25.5239 86.8483C25.9012 84.6602 25.233 79.8377 23.1958 79.0134C23.135 78.9915 23.0795 78.9573 23.0325 78.913C22.9856 78.8687 22.9483 78.8151 22.9231 78.7557C22.6957 78.1722 21.9106 76.5677 19.7083 77.2338C18.8886 77.4828 18.5525 77.7868 18.5643 78.3324C18.4498 78.4199 18.2541 78.5141 18.0307 78.3628C17.4244 77.3074 16.4852 76.9161 15.1581 77.5605C13.6523 78.2947 13.4996 79.013 13.5778 79.7724L13.5685 79.7785C13.5685 79.7785 13.4094 80.2638 13.0431 80.146C12.7249 79.7269 12.2587 79.6278 11.4038 80.0052C9.11152 81.0195 9.64007 82.5536 9.80575 83.4274C9.74366 83.4941 9.65587 83.5314 9.53523 83.4977C9.30464 83.3049 8.97605 83.2351 8.47922 83.3931C7.29634 83.7726 7.02685 85.792 7.18681 86.5049C7.36435 87.2854 8.64593 90.1616 9.11547 90.9962C9.22656 91.1875 9.37795 91.3395 9.55276 91.4565L9.49649 91.4206C9.96759 91.8722 10.8291 92.4786 11.8756 92.102C11.8756 92.102 12.5549 91.7991 12.7043 91.3597C13.5868 92.1303 15.1908 91.385 15.1908 91.385C15.946 91.0264 16.2327 90.5042 16.3121 90.0179C16.5984 90.2865 16.9413 90.4392 17.2836 90.52C18.3164 90.7714 19.4016 90.3631 19.4016 90.3631C21.072 89.8316 21.5584 89.0085 21.6759 88.4185C22.3454 89.064 23.3769 88.9079 23.3769 88.9079C25.2282 88.5027 25.5239 86.8483 25.5239 86.8483Z" fill="url(#paint4_linear_26_189)"/>
<path d="M83.843 112.974L93.655 115.06C93.655 115.06 95.6732 107.67 83.7366 104.757C71.7985 101.852 83.843 112.974 83.843 112.974Z" fill="url(#paint5_linear_26_189)"/>
<path d="M79.3596 102.165C79.905 100.013 82.4769 95.8791 84.6732 95.9545C84.808 95.9592 84.9356 95.9225 85.0272 95.8301C85.4722 95.3896 86.8421 94.2431 88.583 95.7473C89.2305 96.3082 89.414 96.7226 89.1813 97.2163C89.2503 97.3427 89.3908 97.5084 89.6564 97.461C90.6396 96.7435 91.6567 96.768 92.6069 97.8965C93.684 99.1797 93.5313 99.898 93.151 100.56L93.157 100.569C93.157 100.569 93.1049 101.077 93.4875 101.119C93.9487 100.865 94.4148 100.964 95.0424 101.657C96.7239 103.516 95.6171 104.702 95.1103 105.433C95.1399 105.519 95.1973 105.587 95.3288 105.607C95.6179 105.525 95.9465 105.595 96.3361 105.941C97.2623 106.769 96.6872 108.724 96.2511 109.31C95.7714 109.951 93.4384 112.059 92.6624 112.628C92.4831 112.758 92.2829 112.835 92.0757 112.871C92.1002 112.868 92.1248 112.866 92.1417 112.861C91.5276 113.082 90.494 113.286 89.6911 112.516C89.6911 112.516 89.1937 111.963 89.236 111.501C88.1164 111.846 86.9541 110.513 86.9541 110.513C86.4101 109.878 86.3606 109.284 86.4859 108.808C86.115 108.936 85.7396 108.937 85.3941 108.871C84.3483 108.681 83.5231 107.866 83.5231 107.866C82.2132 106.701 82.1036 105.752 82.2363 105.165C81.3622 105.482 80.4833 104.92 80.4833 104.92C78.9569 103.797 79.3596 102.165 79.3596 102.165Z" fill="url(#paint6_linear_26_189)"/>
<path d="M90.5652 112.462C90.4499 112.366 90.3439 112.263 90.2504 112.14C90.2384 112.121 90.2187 112.101 90.2083 112.075C90.0447 111.792 90.0648 111.397 90.785 110.752C92.7438 109.052 93.6691 107.667 93.6691 107.667C94.3152 106.694 94.1997 106.486 94.1997 106.486C94.1049 106.218 93.6607 106.842 93.6607 106.842C91.5677 109.249 90.2751 110.22 89.73 110.567C89.7038 110.578 89.6776 110.588 89.6531 110.591C89.5577 110.627 89.4546 110.661 89.3471 110.678C89.3057 110.685 89.2566 110.69 89.2151 110.698C89.1246 110.71 89.0296 110.706 88.9347 110.702C88.8872 110.7 88.8397 110.698 88.7862 110.686C88.6869 110.665 88.5891 110.636 88.487 110.591C88.4428 110.573 88.397 110.564 88.3543 110.539C88.1184 110.419 87.9092 110.252 87.7397 110.049C87.7156 110.011 87.6839 109.973 87.6598 109.936C87.6358 109.899 87.6041 109.86 87.58 109.823C87.5515 109.769 87.5247 109.707 87.4962 109.653C87.4858 109.627 87.4678 109.599 87.459 109.566C87.4338 109.496 87.4162 109.429 87.4002 109.353C87.3975 109.329 87.3871 109.303 87.3843 109.278C87.3683 109.203 87.3693 109.123 87.3703 109.044L87.362 108.97C87.3629 108.89 87.3808 108.806 87.3894 108.728C87.3959 108.698 87.3931 108.673 87.398 108.65C87.4159 108.566 87.449 108.485 87.4822 108.404C87.4963 108.375 87.5028 108.345 87.5185 108.308C87.5517 108.227 87.6078 108.152 87.6578 108.066C87.6812 108.031 87.697 107.995 87.7188 107.967C89.9841 105.877 91.3423 103.921 91.3423 103.921C91.7594 103.387 91.9996 102.783 91.9996 102.783C91.8832 102.391 91.4687 102.838 91.4687 102.838C88.6957 106.114 87.2038 107.347 87.2038 107.347C87.2038 107.347 85.9364 108.763 84.1679 107.125C84.1679 107.125 83.3033 106.27 83.231 105.784C83.1654 105.378 83.215 104.694 83.9284 103.855C83.9284 103.855 85.6714 101.63 88.3379 98.9299C88.3379 98.9299 88.5717 98.4685 88.0624 98.6477C87.6654 98.787 87.319 99.1766 87.1675 99.2882C87.1675 99.2882 85.6468 100.618 83.2566 103.409C83.2566 103.409 82.7202 104.054 82.2006 104.319C81.726 104.409 81.1904 104.224 80.6826 103.644C79.5838 102.389 80.3636 101.125 81.3884 99.8729C81.9482 99.1931 83.2231 97.667 84.379 96.4751C84.4695 96.4624 84.5601 96.4497 84.6474 96.4522C84.9322 96.4649 85.1847 96.3668 85.3677 96.1821C86.278 95.2813 85.9369 94.2184 84.6638 95.4733C82.1613 95.3727 79.4457 99.7315 78.8662 102.044C78.8483 102.128 78.4073 104.015 80.1784 105.302C80.2347 105.338 80.8901 105.749 81.6917 105.736C81.7479 106.411 82.11 107.262 83.1772 108.216C83.1969 108.236 84.121 109.112 85.2858 109.343C85.5014 109.381 85.7203 109.404 85.9303 109.392C85.9681 109.816 86.1354 110.307 86.5705 110.814C86.6219 110.873 87.624 112.021 88.819 112.035C88.9659 112.434 89.2349 112.746 89.3059 112.825C89.6103 113.122 89.9604 113.316 90.336 113.428L90.6799 113.501C91.1755 113.574 91.7232 113.515 92.2942 113.309C92.3018 113.311 92.3034 113.303 92.3111 113.305C93.6677 112.746 96.0914 109.723 96.1645 109.379C96.1721 109.381 92.6483 113.296 90.5652 112.462ZM25.9572 86.5012C26.361 84.1509 25.653 79.0645 23.3336 78.1402C22.6886 76.4775 21.937 77.3082 22.4022 78.5013C22.4943 78.7445 22.6943 78.9308 22.9504 79.0411C23.0312 79.0743 23.1088 79.1227 23.1863 79.1711C23.7575 80.7302 24.2997 82.6505 24.5363 83.4915C24.965 85.0443 25.1557 86.5145 23.6471 87.2242C22.9475 87.5467 22.3903 87.5002 21.9861 87.2225C21.6269 86.7708 21.3914 85.962 21.3914 85.962C20.3429 82.4405 19.4946 80.6068 19.4946 80.6068C19.4016 80.4433 19.2497 79.9557 18.9376 79.6578C18.5452 79.2869 18.5712 79.8035 18.5712 79.8035C19.9106 83.347 20.5961 86.0964 20.5961 86.0964C20.9143 87.1545 20.6813 87.7998 20.4489 88.1418C20.1849 88.5569 19.0474 88.986 19.0474 88.986C16.7734 89.7646 16.1838 87.954 16.1838 87.954C16.1838 87.954 15.3144 86.2198 14.1214 82.1004C14.1214 82.1004 13.9169 81.5218 13.6588 81.8344C13.6588 81.8344 13.6326 82.4837 13.7963 83.1415C13.7963 83.1415 14.2432 85.4729 15.4608 88.3115C15.468 88.353 15.4675 88.3928 15.4763 88.4266C15.489 88.5172 15.5001 88.6154 15.5051 88.7043C15.5063 88.7365 15.4998 88.7671 15.4993 88.8069C15.4967 88.8942 15.4941 88.9815 15.4763 89.0656C15.4698 89.0962 15.4573 89.1175 15.4524 89.1404C15.4345 89.2245 15.4106 89.2992 15.3791 89.3724C15.3666 89.3937 15.3541 89.415 15.3492 89.4379C15.3177 89.5111 15.2785 89.5827 15.2333 89.6449C15.2208 89.6662 15.2007 89.6859 15.1881 89.7072C15.1446 89.7619 15.0994 89.8241 15.0482 89.8771C15.028 89.8968 15.0002 89.9149 14.9785 89.9422C14.9289 89.9876 14.8809 90.0253 14.833 90.063C14.7959 90.0871 14.7512 90.1095 14.7141 90.1336C14.6771 90.1577 14.64 90.1817 14.5953 90.2042C14.5152 90.2431 14.4274 90.2803 14.3505 90.3039C14.1629 90.3599 13.9878 90.3945 13.8345 90.4019C13.7854 90.4074 13.7395 90.3977 13.6844 90.3939C13.5742 90.3865 13.4716 90.3807 13.3722 90.3595C13.3264 90.3498 13.2745 90.3308 13.2303 90.3134C13.1418 90.2786 13.0534 90.2438 12.9758 90.1954C12.9408 90.172 12.8982 90.147 12.8633 90.1236C12.7797 90.0659 12.6994 89.9929 12.619 89.9199C12.5994 89.8997 12.5781 89.8872 12.5584 89.8671C12.2017 89.328 11.4158 87.915 10.4826 84.8653C10.4826 84.8653 10.3308 84.1142 10.1353 84.3202C10.1353 84.3202 9.94344 84.4711 10.1396 85.615C10.1396 85.615 10.4217 87.2564 11.5196 89.6063C11.915 90.4891 11.7727 90.8582 11.5083 91.0496C11.4898 91.0616 11.4636 91.072 11.4435 91.0917C11.3154 91.1683 11.1692 91.2171 11.0247 91.2583C8.78247 91.1731 7.15741 86.1552 7.15741 86.1552C7.08269 86.5067 8.06724 90.2543 9.08116 91.3084C9.0888 91.3101 9.08718 91.3177 9.09482 91.3193C9.53258 91.7398 10.0012 92.0152 10.4914 92.1513L10.8353 92.2244C11.2315 92.2767 11.6303 92.2416 12.0213 92.0931C12.1184 92.0499 12.4929 91.8659 12.7876 91.5691C13.8852 92.042 15.275 91.403 15.3382 91.3685C15.9423 91.0816 16.2947 90.7012 16.5015 90.3298C16.6888 90.4255 16.8886 90.5 17.1102 90.5471C18.2669 90.8169 19.4688 90.3855 19.495 90.3751C20.8562 89.9456 21.535 89.3071 21.8609 88.7135C22.5893 89.044 23.3536 88.9429 23.4196 88.933C25.5748 88.4885 25.941 86.5776 25.9572 86.5012Z" fill="#BA8F63"/>
<path d="M70.3651 13.3785C39.0262 6.71716 33.119 35.7484 33.0215 36.2069C29.0322 54.9751 24.8342 81.7898 30.1288 93.8175C32.2304 98.5852 37.9359 100.038 37.9359 100.038L50.9073 102.779L63.8721 105.55C63.8721 105.55 69.6827 106.546 73.5341 103.044C83.2632 94.2093 90.3346 68.0053 94.3239 49.2371C94.4137 48.777 101.704 20.0398 70.3651 13.3785Z" fill="#AB872F"/>
<path d="M70.3651 13.3785C39.0262 6.71716 33.119 35.7484 33.0215 36.2069C29.0322 54.9751 24.8342 81.7898 30.1288 93.8175C32.2304 98.5852 37.9359 100.038 37.9359 100.038L50.9073 102.779L63.8721 105.55C63.8721 105.55 69.6827 106.546 73.5341 103.044C83.2632 94.2093 90.3346 68.0053 94.3239 49.2371C94.4137 48.777 101.704 20.0398 70.3651 13.3785Z" fill="url(#paint7_radial_26_189)"/>
<path d="M67.7972 23.2795C54.6533 20.4857 40.4025 27.672 35.9974 48.3965C32.458 65.048 40.6746 77.0818 48.9704 82.1677C50.9493 83.379 52.9313 84.1997 54.7654 84.5895C56.5841 84.9761 58.7193 85.0386 61.0029 84.7413C70.6621 83.4878 83.0875 75.8336 86.6302 59.1668C91.0385 38.4271 80.9411 26.0733 67.7972 23.2795Z" fill="#E0BB95"/>
<path d="M62.2606 63.6435C62.1907 63.5967 62.1115 63.5559 62.0291 63.5304L56.6875 62.395C56.6018 62.3847 56.5205 62.3914 56.43 62.4041C55.9063 62.5005 55.5333 62.9403 55.6488 63.524C55.7644 64.1077 56.5082 65.8312 58.6479 66.286C60.7876 66.7408 62.1682 65.4688 62.5111 64.9826C62.8617 64.4981 62.7075 63.9461 62.2606 63.6435Z" fill="#C48E6A"/>
<path d="M47.6038 57.2212C49.6591 57.6581 51.6918 56.2879 52.144 54.1608C52.5961 52.0337 51.2964 49.9552 49.2411 49.5183C47.1857 49.0815 45.153 50.4516 44.7009 52.5787C44.2488 54.7058 45.5484 56.7844 47.6038 57.2212Z" fill="#5F7E89"/>
<path d="M72.4395 62.5003C74.4948 62.9372 76.5275 61.567 76.9797 59.4399C77.4318 57.3128 76.1321 55.2343 74.0768 54.7974C72.0214 54.3605 69.9887 55.7307 69.5366 57.8578C69.0844 59.9849 70.3841 62.0634 72.4395 62.5003Z" fill="#5F7E89"/>
<path d="M55.4192 47.6208C54.9083 46.5298 53.562 44.822 50.3831 44.1463C47.2041 43.4706 45.2703 44.4892 44.3691 45.2721C43.9681 45.6181 43.9422 46.1158 44.1021 46.4533C44.2439 46.763 44.7864 47.1419 45.4907 47.0599C46.195 46.978 47.6201 46.5861 49.7707 47.0272C51.9148 47.4989 53.0573 48.4367 53.6674 48.798C54.2775 49.1593 54.9255 49.0414 55.1827 48.8085C55.466 48.5653 55.6431 48.1077 55.4192 47.6208ZM80.2549 52.8998C79.744 51.8088 78.3978 50.101 75.2188 49.4253C72.0399 48.7496 70.1061 49.7682 69.2049 50.5511C68.8039 50.8971 68.778 51.3948 68.9379 51.7323C69.0797 52.042 69.6222 52.4209 70.3265 52.3389C71.0308 52.257 72.4559 51.8651 74.6065 52.3062C76.7506 52.7779 77.8931 53.7157 78.5032 54.077C79.1132 54.4383 79.7613 54.3204 80.0184 54.0876C80.3018 53.8443 80.4789 53.3867 80.2549 52.8998Z" fill="#AB872F"/>
<path d="M85.4021 113.306L92.3557 80.5912C92.9372 77.8555 91.1801 75.1498 88.4444 74.5683L28.0743 61.7362C25.3386 61.1547 22.6329 62.9118 22.0514 65.6476L15.0961 98.3697L85.4004 113.313L85.4021 113.306Z" fill="url(#paint8_linear_26_189)"/>
<path d="M61.7125 108.27C61.5599 106.696 61.3027 104.901 61.1599 103.017C60.8699 99.2336 61.698 93.1957 62.3966 89.0072C62.8391 86.3617 61.109 83.8295 58.465 83.2675L51.9312 81.8787C49.2872 81.3167 46.6784 82.9187 46.005 85.5231C44.9396 89.6336 43.2403 95.4863 41.4364 98.8248C40.5399 100.487 39.5821 102.025 38.7949 103.399L61.7125 108.27Z" fill="url(#paint9_linear_26_189)"/>
<path d="M70.3651 13.3785C39.0262 6.71716 33.119 35.7484 33.0215 36.2069C31.7611 42.1369 30.4818 48.8696 29.4819 55.6777L34.6204 56.754C35.0489 54.5128 39.5473 41.0524 44.4237 40.9947C62.3278 40.7828 73.921 33.7744 73.921 33.7744C75.2689 39.7956 81.9937 46.8239 84.3798 49.4636C86.3395 51.6293 84.6068 64.3278 83.9465 67.2465L89.6167 68.4518C89.6248 68.4135 89.6482 68.3786 89.658 68.3327C91.5072 61.7371 93.0595 55.1104 94.3119 49.2186C94.4137 48.777 101.704 20.0398 70.3651 13.3785Z" fill="#AB872F"/>
<path d="M70.3651 13.3785C39.0262 6.71716 33.119 35.7484 33.0215 36.2069C31.7611 42.1369 30.4818 48.8696 29.4819 55.6777L34.6204 56.754C35.0489 54.5128 39.5473 41.0524 44.4237 40.9947C62.3278 40.7828 73.921 33.7744 73.921 33.7744C75.2689 39.7956 81.9937 46.8239 84.3798 49.4636C86.3395 51.6293 84.6068 64.3278 83.9465 67.2465L89.6167 68.4518C89.6248 68.4135 89.6482 68.3786 89.658 68.3327C91.5072 61.7371 93.0595 55.1104 94.3119 49.2186C94.4137 48.777 101.704 20.0398 70.3651 13.3785Z" fill="url(#paint10_radial_26_189)"/>
</g>
<defs>
<linearGradient id="paint0_linear_26_189" x1="69.009" y1="17.5932" x2="56.0855" y2="78.3935" gradientUnits="userSpaceOnUse">
<stop offset="0.003" stop-color="#424242"/>
<stop offset="0.271" stop-color="#353535"/>
<stop offset="0.764" stop-color="#131313"/>
<stop offset="1"/>
</linearGradient>
<linearGradient id="paint1_linear_26_189" x1="69.009" y1="17.5932" x2="56.0855" y2="78.3935" gradientUnits="userSpaceOnUse">
<stop offset="0.001" stop-color="#BFBEBE"/>
<stop offset="0.15" stop-color="#212121" stop-opacity="0"/>
<stop offset="0.776" stop-color="#212121" stop-opacity="0"/>
<stop offset="1" stop-color="#BFBEBE"/>
</linearGradient>
<linearGradient id="paint2_linear_26_189" x1="17.3378" y1="38.1511" x2="108.538" y2="57.5363" gradientUnits="userSpaceOnUse">
<stop offset="0.001" stop-color="#BFBEBE"/>
<stop offset="0.1" stop-color="#212121" stop-opacity="0"/>
<stop offset="0.9" stop-color="#212121" stop-opacity="0"/>
<stop offset="1" stop-color="#BFBEBE"/>
</linearGradient>
<linearGradient id="paint3_linear_26_189" x1="6.58724" y1="91.915" x2="19.4575" y2="94.6507" gradientUnits="userSpaceOnUse">
<stop stop-color="#AA00FF"/>
<stop offset="0.987" stop-color="#9500E0"/>
</linearGradient>
<linearGradient id="paint4_linear_26_189" x1="18.7534" y1="90.3012" x2="13.5932" y2="78.2007" gradientUnits="userSpaceOnUse">
<stop stop-color="#CCA47A"/>
<stop offset="0.5" stop-color="#E0BB95"/>
</linearGradient>
<linearGradient id="paint5_linear_26_189" x1="77.988" y1="107.629" x2="94.4912" y2="111.137" gradientUnits="userSpaceOnUse">
<stop stop-color="#AA00FF"/>
<stop offset="0.987" stop-color="#9500E0"/>
</linearGradient>
<linearGradient id="paint6_linear_26_189" x1="84.1369" y1="108.067" x2="93.7727" y2="99.1115" gradientUnits="userSpaceOnUse">
<stop stop-color="#CCA47A"/>
<stop offset="0.5" stop-color="#E0BB95"/>
</linearGradient>
<radialGradient id="paint7_radial_26_189" cx="0" cy="0" r="1" gradientUnits="userSpaceOnUse" gradientTransform="translate(60.9038 55.7485) rotate(12) scale(37.1344 44.1936)">
<stop offset="0.794" stop-color="#BFA055" stop-opacity="0"/>
<stop offset="1" stop-color="#BFA055"/>
</radialGradient>
<linearGradient id="paint8_linear_26_189" x1="58.2863" y1="68.0406" x2="47.1737" y2="120.321" gradientUnits="userSpaceOnUse">
<stop stop-color="#4DD0E1"/>
<stop offset="1" stop-color="#00BCD4"/>
</linearGradient>
<linearGradient id="paint9_linear_26_189" x1="55.3502" y1="81.8499" x2="48.9703" y2="111.865" gradientUnits="userSpaceOnUse">
<stop stop-color="#00BCD4"/>
<stop offset="1" stop-color="#0097A7"/>
</linearGradient>
<radialGradient id="paint10_radial_26_189" cx="0" cy="0" r="1" gradientUnits="userSpaceOnUse" gradientTransform="translate(60.5038 58.8818) rotate(12) scale(38.8969 47.2014)">
<stop offset="0.794" stop-color="#BFA055" stop-opacity="0"/>
<stop offset="1" stop-color="#BFA055"/>
</radialGradient>
<clipPath id="clip0_26_189">
<rect width="100" height="100" fill="white" transform="translate(21.4883 0.697021) rotate(12)"/>
</clipPath>
</defs>
</svg>
