<svg width="72" height="72" viewBox="0 0 72 72" fill="none" xmlns="http://www.w3.org/2000/svg">
<g clip-path="url(#clip0_41_388)">
<path d="M63.9098 47.9193L14.7212 58.3747C13.4649 58.6417 12.7984 57.9639 12.5918 56.9919L5.87107 25.3733C5.66446 24.4012 6.28185 23.4505 7.25388 23.2439L56.4379 12.7895C57.4099 12.5829 58.3606 13.2003 58.5672 14.1724L65.288 45.791C65.3379 46.0213 65.3418 46.2591 65.2994 46.4909C65.2571 46.7227 65.1694 46.9439 65.0413 47.1417C64.9132 47.3394 64.7473 47.51 64.5531 47.6434C64.359 47.7769 64.1403 47.8707 63.9098 47.9193Z" fill="white"/>
<path d="M58.1924 13.5811C58.0523 13.4711 57.8744 13.4208 57.6974 13.4414C57.5204 13.462 57.3588 13.5516 57.2477 13.6909L43.4346 31.4253L44.0534 34.3369L45.4477 32.3968L64.0091 47.0117C64.3797 47.2444 64.6654 47.3035 64.894 47.0488C65.0373 46.889 64.951 46.6629 64.6459 46.445L47.0238 30.2072L58.3067 14.5249C58.5331 14.2371 58.4857 13.8111 58.1924 13.5811ZM27.403 35.3409L6.88529 24.3958C6.80711 24.3545 6.72154 24.3291 6.63351 24.3211C6.54549 24.313 6.45674 24.3225 6.37237 24.3489C6.28801 24.3753 6.2097 24.4181 6.14196 24.4749C6.07421 24.5317 6.01836 24.6013 5.97763 24.6797C5.80324 25.0091 5.93319 25.4176 6.26161 25.5874L22.9476 35.3247L13.45 57.3319C13.2645 57.654 13.2775 57.8957 13.4689 57.9844C13.7813 58.124 14.0183 57.9539 14.2621 57.5905L25.2734 36.6849L28.0307 38.2937L27.403 35.3409Z" fill="#6FBFF0" stroke="#6FBFF0" stroke-width="0.0625" stroke-miterlimit="10"/>
<path d="M63.9098 47.9193L14.7212 58.3747C13.4649 58.6417 12.7984 57.9639 12.5918 56.9919L5.87107 25.3733C5.66446 24.4012 6.28185 23.4505 7.25388 23.2439L56.4379 12.7895C57.4099 12.5829 58.3606 13.2003 58.5672 14.1724L65.288 45.791C65.3379 46.0213 65.3418 46.2591 65.2994 46.4909C65.2571 46.7227 65.1694 46.9439 65.0413 47.1417C64.9132 47.3394 64.7473 47.51 64.5531 47.6434C64.359 47.7769 64.1403 47.8707 63.9098 47.9193Z" stroke="#6FBFF0" stroke-width="0.5" stroke-miterlimit="10"/>
<path d="M27.7116 26.6925L39.1803 23.1573L39.8314 23.0189C39.9644 22.9907 40.1054 23.023 40.2104 23.1109L41.0555 23.8178C41.0849 23.8434 41.1055 23.8776 41.1146 23.9155L41.8767 27.501C41.8972 27.5973 41.8358 27.6918 41.7395 27.7123L32.5694 29.6614C32.5232 29.6713 32.4828 29.699 32.457 29.7387C32.4313 29.7783 32.4224 29.8265 32.4322 29.8727L33.4058 34.4532C33.4282 34.5586 33.5365 34.6171 33.639 34.5809L40.4074 32.064L40.7146 31.9987C40.8613 31.9675 41.0135 32.0071 41.124 32.0986L41.957 32.7937C41.9864 32.8193 42.007 32.8535 42.0161 32.8914L42.7782 36.4769C42.7987 36.5732 42.7373 36.6677 42.641 36.6882L34.4384 38.4317C34.3922 38.4415 34.3517 38.4693 34.326 38.5089C34.3003 38.5485 34.2913 38.5968 34.3012 38.643L35.2738 43.2189C35.2962 43.3243 35.41 43.3864 35.5116 43.3456L41.3135 41.0389C41.3227 41.037 41.3309 41.0305 41.34 41.0285L43.5409 40.5607C43.6876 40.5295 43.8398 40.5691 43.9558 40.6642L44.7843 41.3603C44.8136 41.3859 44.8343 41.42 44.8434 41.4579L45.6055 45.0435C45.626 45.1398 45.5646 45.2343 45.4683 45.2547L32.1899 48.0771C32.1637 48.0828 32.1366 48.0825 32.1105 48.0765C32.0843 48.0705 32.0598 48.0587 32.0387 48.0422L31.0942 47.251C31.0635 47.2224 31.0422 47.1851 31.0332 47.1441L27.5918 26.8953C27.5768 26.8026 27.63 26.7146 27.7116 26.6925Z" fill="#0D47A1"/>
<path d="M26.8098 25.7868L39.7443 23.0374C39.9139 23.0014 40.0761 23.1107 40.1112 23.2757L40.7934 26.4853C40.8295 26.6549 40.7202 26.8171 40.5551 26.8522L31.6464 28.7458C31.4767 28.7819 31.373 28.9477 31.4081 29.1128L32.331 33.4548C32.3671 33.6245 32.5329 33.7282 32.6979 33.6931L40.6484 32.0032C40.8181 31.9671 40.9803 32.0764 41.0154 32.2415L41.6976 35.451C41.7337 35.6207 41.6244 35.7829 41.4593 35.818L33.5088 37.5079C33.3391 37.544 33.2354 37.7098 33.2705 37.8748L34.1934 42.2169C34.2295 42.3865 34.3953 42.4903 34.5604 42.4552L43.4692 40.5616C43.6388 40.5255 43.801 40.6348 43.8361 40.7999L44.5183 44.0094C44.5544 44.1791 44.4451 44.3413 44.28 44.3763L31.3455 47.1257C31.2653 47.1427 31.1815 47.1272 31.1127 47.0825C31.0439 47.0378 30.9957 46.9676 30.9786 46.8874L26.5715 26.1537C26.5355 25.984 26.6448 25.8218 26.8098 25.7868Z" fill="#2196F3"/>
</g>
<defs>
<clipPath id="clip0_41_388">
<rect width="60" height="60" fill="white" transform="translate(0 12.4746) rotate(-12)"/>
</clipPath>
</defs>
</svg>
