<svg width="72" height="72" viewBox="0 0 72 72" fill="none" xmlns="http://www.w3.org/2000/svg">
<g clip-path="url(#clip0_41_360)">
<path d="M10.0939 42.5616C10.0939 42.5616 9.04171 45.3475 9.52426 48.1049C9.92488 50.4137 11.5394 53.6849 15.3127 56.7201C19.086 59.7553 23.7817 61.5393 30.917 63.2093C38.0513 64.8839 45.7706 64.7756 49.9655 62.4229C54.166 60.0666 55.9594 57.7162 56.4618 54.8566C56.9642 51.997 55.6848 50.5989 55.6848 50.5989L10.0939 42.5616Z" fill="#FCB745"/>
<path d="M12.7584 40.104L10.2232 41.7504C10.2232 41.7504 9.06014 44.4264 11.5714 48.1231C13.4739 50.9188 16.8564 55.7926 30.8735 58.8823C43.9928 61.7763 48.738 59.7658 51.7072 58.2644C54.681 56.764 56.3881 53.4224 56.3474 52.3739C56.3113 51.3263 55.6536 50.5875 55.6536 50.5875L12.7584 40.104Z" fill="#E78B20"/>
<path d="M13.0178 43.2791C13.0178 43.2791 12.2129 44.1575 12.27 44.8358C12.3151 45.3677 12.1794 47.4714 17.5491 51.3156C20.3893 53.3522 25.4794 55.6034 32.4411 56.8723C40.699 58.3784 47.6249 58.1253 51.4424 55.8122C55.3524 53.4469 55.1157 51.4941 55.1157 51.4941L13.0178 43.2791Z" fill="#FFD290"/>
<path d="M12.8076 35.9502C12.8076 35.9502 10.4202 37.5321 9.90562 38.3524C9.42007 39.1262 9.20209 40.3546 9.5336 41.4554C9.98194 42.9309 10.8605 43.2614 11.8406 44.1742C12.9017 45.1569 14.3424 47.8257 18.8581 49.8254C23.3738 51.8252 29.5002 53.597 32.8336 54.3055C36.1669 55.0141 40.6068 55.9051 45.0342 55.3893C49.4616 54.8736 54.7707 53.1411 56.385 50.9347C57.9993 48.7284 57.2609 47.0619 57.2609 47.0619L55.2103 44.9631L12.8076 35.9502Z" fill="#6D544D"/>
<path d="M12.2001 33.1708C12.2001 33.1708 10.6925 32.7785 9.83548 35.0068C9.21285 36.6284 10.1982 37.9449 10.1982 37.9449C10.1982 37.9449 9.36038 38.73 9.85464 40.0571C10.3186 41.3011 11.0134 41.7075 12.5013 42.2826C13.5729 42.6973 14.2254 42.4909 15.5001 43.5957C17.0987 44.9802 17.4935 46.9331 19.8673 48.0079C22.241 49.0827 25.1339 49.1801 25.315 48.8017C25.4961 48.4232 22.2319 46.1719 16.5352 41.1608C14.6129 39.4727 12.9676 37.3834 12.6013 36.4238C12.235 35.4642 12.2001 33.1708 12.2001 33.1708ZM40.9263 51.9666C40.7888 52.6131 42.9934 52.7702 44.1044 52.436C45.2153 52.1019 47.1026 51.0462 48.6745 50.7526C50.2455 50.4635 50.6752 51.1251 52.9775 50.5746C55.2797 50.024 56.923 47.9293 56.923 47.9293C56.923 47.9293 58.208 46.8893 58.4776 46.0265C58.8916 44.7104 58.897 44.0311 58.0158 43.5323C57.1346 43.0335 54.4181 45.6908 54.046 45.9759C53.6739 46.261 48.5779 48.5468 46.5715 49.419C44.565 50.2912 41.0003 51.6181 40.9263 51.9666Z" fill="#9B7169"/>
<path d="M14.5039 31.8922C14.5039 31.8922 11.9508 31.661 11.3802 32.6323C10.8095 33.6037 11.5779 35.3772 14.0487 37.9343C16.0764 40.0282 23.369 45.5798 26.1592 48.2574C29.3547 51.328 31.7932 55.1865 32.3026 55.3379C32.9383 55.5257 38.4407 51.7114 45.5442 48.8412C52.2977 46.1075 56.5558 45.9822 58.6248 43.3502C59.735 41.9376 58.0582 40.6276 58.0582 40.6276L36.0047 26.4226L14.5039 31.8922Z" fill="#FFE869"/>
<path d="M33.1715 52.7144C33.9319 52.7897 38.6126 49.8646 43.8061 47.9542C48.9996 46.0438 56.4241 44.392 57.7884 42.8657C59.1527 41.3395 57.0085 39.6809 57.0085 39.6809L30.13 29.0796L12.4427 32.0292C12.4427 32.0292 11.4853 32.1372 11.9225 33.0112C12.3597 33.8853 13.0401 35.3286 14.856 37.066C17.0619 39.1786 23.0273 43.1734 26.6783 46.288C30.3384 49.4046 32.257 52.6206 33.1715 52.7144Z" fill="#FFBE01"/>
<path d="M14.5316 33.2495L14.905 35.7537C14.905 35.7537 19.8045 43.3653 32.1545 46.2491C44.4449 49.1203 52.6122 44.7175 52.6122 44.7175L55.0315 41.0913L14.5316 33.2495Z" fill="#F4482B"/>
<path d="M29.9755 40.5385L28.6666 41.8944C28.6666 41.8944 30.4867 43.5896 31.0415 43.9328C31.8382 44.4232 32.7099 44.4934 34.0637 44.3691C35.4166 44.2493 41.1358 43.2701 41.1358 43.2701C41.1358 43.2701 45.4826 44.2612 48.2092 44.8934C50.6249 45.4548 53.2402 45.1002 54.8221 43.9029C56.404 42.7057 59.0442 39.9794 59.0442 39.9794C59.0442 39.9794 60.1229 39.9547 60.9727 39.3159C61.8225 38.677 62.0182 38.0046 62.0182 38.0046C62.0182 38.0046 62.1017 36.6422 61.4448 36.1479C60.7843 35.6481 28.536 26.7041 28.536 26.7041L15.2381 24.8983L12.0668 28.9733L18.0247 36.7236L28.1568 39.4906L29.9755 40.5385Z" fill="#A6B732"/>
<path d="M13.6008 25.1157C12.9337 24.6241 12.1501 24.5007 11.5986 25.4042C11.0472 26.3077 11.061 26.7611 11.061 26.7611C11.061 26.7611 10.012 26.7586 9.62024 27.9932C9.1519 29.4751 10.6977 30.3643 10.6977 30.3643C10.6977 30.3643 10.6509 30.9678 11.1818 31.694C11.7869 32.5223 12.5488 32.6124 12.5488 32.6124C12.5488 32.6124 14.1082 34.971 15.263 36.0311C16.4178 37.0912 18.2056 38.0367 20.1237 38.3917C22.0418 38.7467 22.8607 38.0055 24.1742 38.7926C25.4877 39.5798 28.8228 42.3541 30.3291 42.7079C32.7117 43.267 38.6777 40.6534 39.8407 40.9534C41.0038 41.2533 46.1507 43.2147 48.9842 43.817C51.8178 44.4193 53.0213 43.8077 53.8304 43.1123C54.6395 42.4169 56.1634 40.5459 55.8302 40.4224C55.4971 40.2989 52.8557 41.6783 51.2775 41.1895C49.6948 40.6997 48.4794 39.4733 46.4757 39.0475C44.4721 38.6216 34.4359 37.8158 33.7362 37.9737C33.0365 38.1317 29.8575 39.6508 29.3415 39.4405C28.8255 39.2302 27.3009 37.272 26.7412 36.7936C26.1816 36.3152 19.5663 34.6791 18.5709 34.6496C17.8569 34.6272 16.8488 34.5903 16.8488 34.5903C16.8488 34.5903 17.2667 33.0977 16.6239 32.0409C15.9811 30.9842 13.5655 28.8893 13.5655 28.8893C13.5655 28.8893 14.5704 25.8298 13.6008 25.1157ZM56.3601 36.96C56.3601 36.96 59.3404 37.5935 60.181 37.7195C61.0216 37.8454 62.008 38.0072 62.008 38.0072C62.008 38.0072 62.0112 36.5942 61.7333 35.7827C61.1667 34.1192 59.1352 33.2609 59.1352 33.2609L56.3601 36.96Z" fill="#C2DD1F"/>
<path d="M13.3017 23.164L12.6701 24.5345C12.6701 24.5345 15.4805 33.4751 35.673 38.0835C47.492 40.7826 55.0704 38.6315 58.7039 36.3272C60.881 34.945 61.3051 33.2429 61.3051 33.2429L13.3017 23.164Z" fill="#DE8010"/>
<path d="M13.1185 18.975C12.0139 22.9095 12.6818 24.5466 12.6818 24.5466C12.6818 24.5466 18.0949 32.0421 35.156 35.9609C52.6427 39.9749 59.5832 35.3688 60.9434 33.8848C61.8097 32.9428 62.768 30.9372 63.0194 27.7703C63.4318 22.5386 59.6245 11.6369 41.0623 7.7681C22.5002 3.89926 14.7254 13.264 13.1185 18.975Z" fill="url(#paint0_radial_41_360)"/>
<path d="M33.1706 11.2808C33.147 12.0905 29.0787 13.9381 29.0989 11.3402C29.1201 8.89591 33.1906 10.5327 33.1706 11.2808ZM33.3889 16.4309C33.47 16.9513 36.9267 18.4097 36.9733 16.2967C37.0191 14.0972 33.2235 15.3606 33.3889 16.4309ZM37.7331 11.527C37.6777 12.2388 41.7061 13.9385 42.0341 11.9667C42.4413 9.53258 37.7982 10.7022 37.7331 11.527ZM29.2789 17.2346C29.2687 17.3954 28.0646 17.9876 26.9427 18.0798C25.9571 18.1627 25.0333 17.8417 25.1725 16.6684C25.3075 15.5374 26.1819 15.3016 27.1059 15.5986C28.1702 15.935 29.2964 16.9268 29.2789 17.2346ZM37.3153 22.3309C37.296 21.5648 33.5636 19.7124 33.3393 22.0752C33.1216 24.4298 37.3385 23.1457 37.3153 22.3309ZM42.1267 17.8665C41.9819 17.6009 41.0699 17.4502 39.9081 17.5051C39.07 17.5474 38.2931 18.3168 38.663 19.282C39.0944 20.4088 40.2606 20.2206 41.1267 19.5277C41.8303 18.968 42.2886 18.1645 42.1267 17.8665ZM47.4934 13.4051C47.3979 13.2458 46.5141 12.9621 45.6999 13.1629C44.8811 13.3626 44.058 14.079 44.5761 15.023C45.1025 15.9735 46.2372 15.7307 46.9081 14.9867C47.443 14.3864 47.6386 13.6468 47.4934 13.4051ZM48.8437 20.9859C48.8833 20.2132 45.8464 18.1779 45.4366 20.2185C45.0161 22.3096 48.8059 21.6823 48.8437 20.9859ZM54.2169 18.275C54.2287 17.6785 50.1043 16.3178 50.371 18.6029C50.6457 20.9855 54.2017 19.0002 54.2169 18.275ZM46.8086 24.5404C46.9726 23.9044 44.0713 21.7494 43.4235 23.6244C42.7758 25.4995 46.5946 25.3671 46.8086 24.5404Z" fill="#FDEAC8"/>
</g>
<defs>
<radialGradient id="paint0_radial_41_360" cx="0" cy="0" r="1" gradientUnits="userSpaceOnUse" gradientTransform="translate(40.0607 13.3025) rotate(101.358) scale(20.6439 35.9715)">
<stop offset="0.517" stop-color="#DF8016"/>
<stop offset="0.643" stop-color="#E58C21"/>
<stop offset="1" stop-color="#F5AC3C"/>
</radialGradient>
<clipPath id="clip0_41_360">
<rect width="60" height="60" fill="white" transform="translate(12.4746) rotate(12)"/>
</clipPath>
</defs>
</svg>
