<svg width="72" height="72" viewBox="0 0 72 72" fill="none" xmlns="http://www.w3.org/2000/svg">
<g clip-path="url(#clip0_41_394)">
<path d="M48.9741 44.1685C47.9708 43.4616 46.6588 42.5424 45.513 41.7509C43.2909 40.2248 40.7676 39.266 40.7676 39.266L37.9187 44.012C37.9187 44.012 39.9152 46.348 42.0789 47.5318C43.1367 48.1121 44.4221 48.6583 45.4632 49.0696C45.4221 49.5527 45.4103 50.1735 45.5008 50.8922C45.7924 53.1209 46.7457 55.9374 46.8277 56.2554C47.2394 57.9219 47.5219 59.1605 47.5219 59.1605L50.4268 58.5335L50.5653 47.2807C50.5807 46.0458 49.9875 44.878 48.9741 44.1685Z" fill="url(#paint0_linear_41_394)"/>
<path d="M32.9683 40.9238C32.9683 40.9238 31.0532 42.826 29.6495 45.1275C28.9247 46.3167 28.1 47.6901 27.471 48.7439C27.1578 49.2664 26.977 49.8575 26.9443 50.4658C26.9116 51.074 27.0279 51.6811 27.2832 52.2342L31.9866 62.4579L34.8954 61.8491C34.8954 61.8491 34.6497 60.6027 34.348 58.9129C34.2889 58.59 34.0188 55.6283 33.3787 53.4736C33.1736 52.7792 32.9058 52.218 32.6717 51.7933C33.4555 50.9941 34.4076 49.9723 35.138 49.0119C36.6331 47.0504 37.5069 44.1044 37.5069 44.1044L32.9683 40.9238Z" fill="url(#paint1_linear_41_394)"/>
<path d="M30.6333 59.6978L31.9904 62.4524L34.8992 61.8436L34.3426 58.9093L30.6333 59.6978Z" fill="#E0E0E0"/>
<path d="M36.1422 62.7772C35.9505 61.8979 34.9815 61.0591 34.9815 61.0591L31.4281 61.8144L28.8919 63.3647C28.5754 63.5741 28.3291 63.8738 28.1849 64.2248C28.0408 64.5759 28.0055 64.9622 28.0836 65.3336L28.2083 65.9205C28.2629 66.1772 28.514 66.3443 28.7708 66.2897L36.0058 64.7279C36.2992 64.6655 36.4869 64.3764 36.4236 64.0784L36.1422 62.7772Z" fill="#2E4A3D"/>
<path d="M46.8276 56.2554L47.5264 59.1595L50.4268 58.5334L50.5415 55.466L46.8276 56.2554Z" fill="#E0E0E0"/>
<path d="M53.6239 58.1079L50.6809 57.7223L47.1275 58.4776C47.1275 58.4776 46.5789 59.639 46.767 60.5239L47.0392 61.827C47.1015 62.1204 47.3906 62.3082 47.685 62.2504L54.9242 60.7308C55.1809 60.6763 55.3434 60.4261 55.2879 60.1647L55.1631 59.5778C55.0013 58.8167 54.3894 58.2375 53.6239 58.1079Z" fill="#2E4A3D"/>
<path d="M31.5663 14.7351C25.7845 15.9641 26.9667 21.3005 26.9842 21.3831C27.7201 24.8448 29.0259 29.6805 30.8189 31.3073C31.5309 31.9515 32.5998 31.7722 32.5998 31.7722L34.9922 31.2589L37.3866 30.7548C37.3866 30.7548 38.4416 30.4874 38.8244 29.6057C39.7998 27.3857 39.0268 22.4415 38.291 18.9797C38.2735 18.8972 37.3434 13.5072 31.5663 14.7351Z" fill="#AB872F"/>
<path d="M31.5663 14.7351C25.7845 15.9641 26.9667 21.3005 26.9842 21.3831C27.7201 24.8448 29.0259 29.6805 30.8189 31.3073C31.5309 31.9515 32.5998 31.7722 32.5998 31.7722L34.9922 31.2589L37.3866 30.7548C37.3866 30.7548 38.4416 30.4874 38.8244 29.6057C39.7998 27.3857 39.0268 22.4415 38.291 18.9797C38.2735 18.8972 37.3434 13.5072 31.5663 14.7351Z" fill="url(#paint2_radial_41_394)"/>
<path d="M46.8073 14.1121L44.5025 13.5046C43.185 15.4906 42.6937 17.0567 42.4684 19.6492C41.0546 20.7309 39.9888 22.3903 39.4096 23.9942C38.7481 25.4814 38.3132 26.3214 37.9112 27.7439C37.6088 28.8242 38.2056 29.8283 39.2705 30.3064C39.7743 30.5347 40.1566 30.5973 40.5005 30.5242C40.8856 30.4423 41.2144 30.1855 41.5994 29.7874C42.4335 29.0446 43.4179 27.3402 44.0171 26.101L43.9912 26.0922C44.7634 24.5622 45.4308 22.4939 45.5877 20.6395C46.7367 18.7851 47.3248 16.5467 46.8073 14.1121Z" fill="url(#paint3_linear_41_394)"/>
<path d="M30.897 29.2396C29.951 28.1037 29.2121 27.5131 28.0029 26.4235C26.8214 25.1939 25.1728 24.1114 23.4413 23.6983C22.1745 21.4134 21.0896 20.1871 19.0783 18.9086L17.2254 20.4047C17.7429 22.8393 19.1896 24.6404 20.9944 25.8718C21.8911 27.4974 23.3384 29.121 24.6707 30.2036L24.6507 30.2223C25.7021 31.1106 27.2946 32.2673 28.3587 32.6066C28.8724 32.8137 29.2772 32.9145 29.6623 32.8326C30.0062 32.7596 30.329 32.5424 30.6974 32.1334C31.4711 31.2645 31.6115 30.0989 30.897 29.2396Z" fill="url(#paint4_linear_41_394)"/>
<path d="M39.4097 23.9944C38.8287 25.2967 38.4257 26.106 38.0633 27.2421C37.4682 27.2153 36.8133 27.2682 36.1072 27.4183L32.3612 28.2146C31.6689 28.3617 31.0674 28.5758 30.5474 28.8349C29.7543 27.9444 29.057 27.369 27.9965 26.4155L24.6498 30.2179C25.7013 31.1062 27.8993 32.6996 27.8993 32.6996C28.6756 34.4803 32.4402 41.4147 32.4402 41.4147L41.7342 39.4392L42.1282 29.6368C42.1282 29.6368 43.4305 27.309 44.0181 26.1058L39.4097 23.9944Z" fill="url(#paint5_linear_41_394)"/>
<path d="M32.7366 28.4701C32.8984 29.2312 33.6764 29.7128 34.4742 29.5432L34.7631 29.4818C35.5609 29.3122 36.0758 28.5558 35.914 27.7947L35.5564 26.112L32.3789 26.7874L32.7366 28.4701Z" fill="#C48E6A"/>
<path d="M31.8502 16.4766C29.4247 16.9922 27.561 19.2717 28.3738 23.0956C29.0268 26.1676 31.3155 27.5788 33.0955 27.8139C33.519 27.8676 33.9152 27.8601 34.2545 27.788C34.5892 27.7168 34.9551 27.5672 35.3156 27.3468C36.847 26.4127 38.3675 24.187 37.7146 21.115C36.9054 17.2855 34.2757 15.9611 31.8502 16.4766Z" fill="#E0BB95"/>
<path d="M33.962 23.7289L33.9132 23.7249L32.9091 23.9383C32.8953 23.9412 32.878 23.9497 32.8662 23.9618C32.7823 24.018 32.7523 24.125 32.8196 24.2161C32.8823 24.3082 33.1435 24.545 33.547 24.4592C33.9505 24.3735 34.0882 24.0519 34.1126 23.9413C34.1175 23.9174 34.1174 23.8927 34.1124 23.8688C34.1074 23.8449 34.0975 23.8223 34.0834 23.8024C34.0693 23.7825 34.0512 23.7657 34.0303 23.753C34.0095 23.7404 33.9862 23.7322 33.962 23.7289Z" fill="#C48E6A"/>
<path d="M34.8503 24.7285C34.4539 25.0955 32.9729 25.4103 32.466 25.2353C32.1716 25.135 31.9563 25.4299 32.1161 25.6404C32.2712 25.8518 33.1968 26.2158 33.8937 26.0676C34.5907 25.9195 35.279 25.2125 35.3348 24.9562C35.3905 24.7 35.0785 24.5171 34.8503 24.7285Z" fill="#6D4C41"/>
<path d="M30.9869 23.7336C31.3668 23.6528 31.6066 23.2671 31.5227 22.8721C31.4387 22.4771 31.0627 22.2223 30.6829 22.303C30.303 22.3838 30.0632 22.7695 30.1472 23.1645C30.2311 23.5595 30.6071 23.8143 30.9869 23.7336Z" fill="#5D4037"/>
<path d="M35.5905 22.7551C35.9703 22.6743 36.2102 22.2886 36.1262 21.8936C36.0422 21.4986 35.6662 21.2438 35.2864 21.3245C34.9066 21.4053 34.6667 21.7909 34.7507 22.186C34.8346 22.581 35.2106 22.8358 35.5905 22.7551Z" fill="#5D4037"/>
<path d="M31.5846 21.517C31.4146 21.371 31.0583 21.1832 30.4715 21.3079C29.88 21.4336 29.631 21.7501 29.5396 21.9517C29.4966 22.0423 29.5334 22.1255 29.5818 22.1727C29.6292 22.2154 29.749 22.2378 29.864 22.1702C29.9791 22.1027 30.1866 21.9292 30.5845 21.8398C30.9844 21.7596 31.2481 21.8281 31.3771 21.8486C31.5097 21.8636 31.61 21.7943 31.6359 21.7361C31.653 21.6991 31.6573 21.6574 31.648 21.6177C31.6386 21.578 31.6163 21.5426 31.5846 21.517ZM36.188 20.5385C36.018 20.3925 35.6617 20.2047 35.0749 20.3294C34.4834 20.4552 34.2344 20.7717 34.143 20.9732C34.1 21.0638 34.1368 21.147 34.1852 21.1942C34.2326 21.2369 34.3524 21.2593 34.4674 21.1918C34.5825 21.1242 34.79 20.9507 35.1879 20.8613C35.5878 20.7811 35.8515 20.8496 35.9805 20.8701C36.1131 20.8851 36.2134 20.8158 36.2393 20.7576C36.2564 20.7206 36.2607 20.6789 36.2514 20.6392C36.2421 20.5995 36.2197 20.5641 36.188 20.5385Z" fill="#AB872F"/>
<path d="M31.5663 14.7351C25.7845 15.9641 26.9667 21.3005 26.9842 21.3831C27.2172 22.4789 27.5068 23.7064 27.8489 24.9324L28.7925 24.7271C28.6956 24.3164 28.4435 21.7102 29.2646 21.3345C32.2635 19.9542 33.6923 17.9061 33.6923 17.9061C34.3708 18.821 36.0292 19.4988 36.6318 19.7637C37.1235 19.9803 37.7467 22.2583 37.8525 22.8013L38.9392 22.5703C38.9373 22.5611 38.9409 22.5556 38.9389 22.5464C38.7547 21.2965 38.521 20.0618 38.29 18.9751C38.2781 18.8962 37.348 13.5062 31.5663 14.7351Z" fill="#AB872F"/>
<path d="M31.5663 14.7351C25.7845 15.9641 26.9667 21.3005 26.9842 21.3831C27.2172 22.4789 27.5068 23.7064 27.8489 24.9324L28.7925 24.7271C28.6956 24.3164 28.4435 21.7102 29.2646 21.3345C32.2635 19.9542 33.6923 17.9061 33.6923 17.9061C34.3708 18.821 36.0292 19.4988 36.6318 19.7637C37.1235 19.9803 37.7467 22.2583 37.8525 22.8013L38.9392 22.5703C38.9373 22.5611 38.9409 22.5556 38.9389 22.5464C38.7547 21.2965 38.521 20.0618 38.29 18.9751C38.2781 18.8962 37.348 13.5062 31.5663 14.7351Z" fill="url(#paint6_radial_41_394)"/>
<path d="M20.5502 16.837C20.0858 16.6817 18.0627 16.7907 16.7101 17.0782C15.9674 17.2361 15.433 17.4503 15.4866 17.7025L15.8163 19.2761C16.148 20.8589 17.4544 21.9327 19.1611 21.5747L19.1657 21.5737C22.256 20.9168 21.7252 17.2246 20.5502 16.837Z" fill="url(#paint7_radial_41_394)"/>
<path d="M20.7967 18.5387C20.7911 18.6022 20.6433 18.6959 20.4788 18.7788L20.4742 18.7797C20.2832 18.873 20.0662 19.0246 19.6477 19.2429C19.0658 19.5487 19.1918 20.3893 19.1918 20.3893C18.9855 19.9827 19.1182 19.1638 19.4892 18.9028L19.4882 18.8983C19.6613 18.7656 19.8661 18.6694 20.0875 18.584C20.1232 18.5716 20.214 18.5475 20.3296 18.5277L20.3342 18.5268C20.5415 18.4875 20.8041 18.4604 20.7967 18.5387Z" fill="#BA8F63"/>
<path d="M59.076 9.29035C59.2105 9.92309 58.9849 10.5078 58.5677 10.5964L5.05077 21.9718C4.63811 22.0595 4.18966 21.6181 4.05517 20.9854C3.92068 20.3526 4.15082 19.767 4.56347 19.6793L58.0758 8.30489C58.493 8.2162 58.9415 8.65761 59.076 9.29035Z" fill="url(#paint8_linear_41_394)"/>
<path d="M13.2253 25.9801C14.743 25.6575 15.7142 24.1619 15.3916 22.6443L13.7494 14.9185C13.4268 13.4008 11.9313 12.4296 10.4136 12.7522C8.89598 13.0748 7.92476 14.5703 8.24735 16.088L9.88953 23.8138C10.2121 25.3314 11.7031 26.3036 13.2253 25.9801Z" fill="url(#paint9_radial_41_394)"/>
<path d="M52.7302 17.5831C51.2125 17.9057 49.717 16.9345 49.3944 15.4168L47.7522 7.69098C47.4296 6.17332 48.4009 4.67778 49.9185 4.35519C51.4362 4.0326 52.9317 5.00382 53.2543 6.52148L54.8965 14.2473C55.2191 15.765 54.2524 17.2595 52.7302 17.5831Z" fill="url(#paint10_radial_41_394)"/>
<path d="M7.65604 24.3987C8.66934 24.1833 9.31562 23.1882 9.10024 22.1749L8.1929 17.9062C7.97751 16.8929 6.98234 16.2466 5.96904 16.462C4.95574 16.6774 4.30946 17.6725 4.52484 18.6858L5.43218 22.9545C5.64757 23.9678 6.64275 24.6141 7.65604 24.3987Z" fill="url(#paint11_radial_41_394)"/>
<path d="M57.1748 13.8733C56.1615 14.0887 55.1664 13.4424 54.951 12.4291L54.0436 8.16044C53.8283 7.14714 54.4745 6.15197 55.4878 5.93658C56.5011 5.7212 57.4963 6.36747 57.7117 7.38077L58.619 11.6495C58.8344 12.6628 58.1881 13.6579 57.1748 13.8733Z" fill="url(#paint12_radial_41_394)"/>
<path d="M20.1679 18.7586L15.89 19.6679L15.0359 17.4534L19.6806 16.4661L20.1679 18.7586Z" fill="#646464"/>
<path d="M20.7836 15.7716L20.8017 16.5105L20.8073 16.6723L20.8162 17.0298L20.8224 17.2393C20.8275 17.4716 20.7408 17.6964 20.5809 17.865C20.4211 18.0336 20.2012 18.1323 19.9691 18.1395C19.7504 18.1477 19.5481 18.0757 19.3893 17.9369C19.2672 18.1066 19.0866 18.2265 18.8711 18.2723C18.7427 18.2996 18.3012 18.2065 18.2178 18.1524C18.1949 18.1387 18.1737 18.1223 18.1547 18.1035C18.1393 18.1211 18.1249 18.1434 18.1095 18.161C18.1013 18.1676 17.873 18.379 17.6061 18.4309C17.3576 18.479 17.0778 18.3803 16.9889 18.3225C16.9379 18.4436 16.8565 18.5567 16.751 18.6463C16.6792 18.7142 16.5943 18.7658 16.4963 18.801C16.4524 18.8199 16.4075 18.8343 16.3617 18.844C16.1783 18.883 15.9868 18.8614 15.8167 18.7825C15.5949 18.6859 15.4282 18.5105 15.3474 18.2881L15.2049 17.911L15.204 17.9064L15.0198 17.4232C14.9344 17.2018 14.9407 16.9608 15.0383 16.7436C15.1349 16.5218 15.3103 16.3551 15.5327 16.2743C15.5858 16.2534 15.6399 16.2371 15.6959 16.23C15.7096 16.2271 15.728 16.2232 15.7427 16.2249C15.8914 16.2028 16.0488 16.2221 16.1967 16.2865C16.2179 16.2964 16.2346 16.3072 16.2503 16.3134C16.2554 16.2021 16.289 16.0896 16.3402 15.9924C16.3527 15.961 16.3662 15.9342 16.3842 15.9064C16.4049 15.8684 16.4249 15.8498 16.4321 15.8387C16.4367 15.8377 16.4358 15.8331 16.4358 15.8331C16.548 15.6847 16.7112 15.5733 16.9064 15.5222C16.9696 15.504 17.0348 15.495 17.0963 15.4915C17.1441 15.4909 17.1883 15.4959 17.2325 15.5008C17.3595 15.5122 17.4777 15.5494 17.5869 15.6124C17.6066 15.5699 17.6309 15.5264 17.6562 15.4875C17.6923 15.4319 17.734 15.3799 17.7776 15.3371C17.8012 15.3129 17.8304 15.2923 17.854 15.2681C17.9569 15.1887 18.0794 15.1339 18.2134 15.1103C18.3601 15.0791 18.51 15.0855 18.654 15.1316C18.6789 15.1359 18.7001 15.1458 18.7214 15.1556C18.7741 15.178 18.8231 15.2059 18.8732 15.2384C18.9621 15.2961 19.0403 15.3706 19.101 15.4535C19.1385 15.3593 19.1953 15.2658 19.2697 15.1876C19.2851 15.17 19.3051 15.1513 19.3261 15.1373C19.4071 15.0674 19.4956 15.0102 19.5935 14.975C19.6869 14.9408 19.7832 14.9203 19.8834 14.9182C20.1214 14.9108 20.3413 14.9982 20.5142 15.1579C20.6835 15.3232 20.7771 15.5381 20.7836 15.7716Z" fill="url(#paint13_linear_41_394)"/>
<path d="M42.2362 39.5242L41.7243 38.6937L32.1094 40.7374L32.1301 41.6915L28.7744 46.1954L34.3943 49.9992C34.3943 49.9992 36.955 46.7377 37.182 46.4306C37.4308 46.0902 37.7953 45.9792 38.019 45.9269C38.2447 45.8837 38.6229 45.8368 38.9886 46.0466C39.3218 46.2394 42.9867 48.1728 42.9867 48.1728L46.7479 42.375L42.2362 39.5242Z" fill="#7C7C7C"/>
<path d="M20.8017 16.2853C20.729 16.732 19.774 16.5229 19.4078 16.4234C19.2716 16.0307 19.1646 15.7754 19.1646 15.7754L19.1656 15.78C19.2281 16.0064 19.0339 16.2201 18.8009 16.1834C18.5374 16.1388 18.2412 16.1203 18.0414 16.1723C17.9644 16.1935 17.9031 16.2209 17.8474 16.2519C17.7544 16.0848 17.697 15.9724 17.697 15.9724L17.7077 16.0228C17.7316 16.1807 17.6895 16.343 17.5796 16.4574C17.149 16.8892 17.1512 17.5308 17.8821 18.0608C17.7096 18.2412 17.3913 18.2993 17.1735 18.1539C16.8955 17.9734 16.6442 17.2648 16.3963 16.752C16.5194 17.1284 16.7802 17.7918 16.7817 18.0694C16.7812 18.405 16.5031 18.675 16.1656 18.6653C15.8712 18.6559 15.4934 18.5014 15.2013 17.9166L15.3438 18.2936C15.4246 18.5161 15.5913 18.6915 15.8131 18.7881C15.9832 18.867 16.1747 18.8886 16.3581 18.8496C16.4039 18.8398 16.4488 18.8255 16.4927 18.8066C16.5769 18.7743 16.649 18.7302 16.7146 18.678C16.7182 18.6724 16.7273 18.6704 16.731 18.6649C16.7346 18.6593 16.7437 18.6574 16.7473 18.6518C16.9175 18.5054 16.9826 18.3382 16.9852 18.3281C17.016 18.3599 17.2963 18.5064 17.5852 18.445C17.9841 18.3602 18.1058 18.1666 18.1058 18.1666C18.1474 18.1817 18.188 18.1922 18.2276 18.1982C18.257 18.2015 19.4069 18.3357 19.4524 18.7525C19.4585 18.804 19.4738 18.8534 19.4891 18.9029L19.494 18.9258C19.5331 19.0421 19.585 19.1509 19.6487 19.2476L19.6523 19.242C19.7438 19.1315 20.0253 19.1483 20.0151 18.9876C19.9765 18.3776 19.8035 17.6763 19.6198 17.0828L20.8162 17.0298L20.8017 16.2853Z" fill="#BA8F63"/>
<path d="M21.3395 17.7333C20.8527 16.5476 19.2534 16.3508 18.6521 16.2726C18.5785 16.2643 17.5044 16.2386 17.5735 17.1728C17.6023 17.5788 17.992 17.9464 18.4037 18.0122C19.5293 18.1899 19.5715 18.411 19.6027 18.5577C19.679 18.9392 20.0429 19.6143 20.4188 19.7596C20.4974 19.7908 20.5812 19.8018 20.6545 19.7862C20.7004 19.7764 20.7443 19.7575 20.7862 19.7294C21.3752 19.3215 21.6209 18.4258 21.3395 17.7333Z" fill="url(#paint14_linear_41_394)"/>
<path d="M42.375 12.1982C42.736 11.8675 44.6285 11.1441 45.9811 10.8566C46.7239 10.6987 47.2992 10.6771 47.3528 10.9293L47.6916 12.501C48.0325 14.0819 47.2756 15.5941 45.571 15.9613L45.5664 15.9622C42.4761 16.6191 41.4546 13.0312 42.375 12.1982Z" fill="url(#paint15_radial_41_394)"/>
<path d="M42.8416 13.8529C42.8726 13.9086 43.0458 13.9341 43.2298 13.9429L43.2344 13.9419C43.4468 13.9495 43.7067 13.9997 44.1777 14.029C44.8338 14.0716 45.0606 14.8908 45.0606 14.8908C45.0836 14.4354 44.6294 13.7413 44.1843 13.6538L44.1833 13.6492C43.9712 13.5984 43.745 13.5938 43.508 13.6058C43.4703 13.6091 43.3776 13.624 43.264 13.6529L43.2594 13.6539C43.054 13.7023 42.8031 13.7844 42.8416 13.8529Z" fill="#BA8F63"/>
<path d="M43.0186 11.5054L47.6632 10.5181L47.7837 12.8886L43.5058 13.7979L43.0186 11.5054Z" fill="#646464"/>
<path d="M41.7282 11.3195L42.0122 12.002L42.0729 12.152L42.2102 12.4823L42.2897 12.6762C42.3795 12.8904 42.5502 13.0606 42.7648 13.1496C42.9794 13.2386 43.2204 13.2393 43.4354 13.1515C43.6386 13.07 43.794 12.9219 43.8827 12.7306C44.0632 12.836 44.277 12.872 44.4925 12.8262C44.6209 12.7989 44.9863 12.5343 45.0405 12.4509C45.0549 12.4287 45.0694 12.4064 45.0783 12.3806C45.0995 12.3905 45.1218 12.4049 45.143 12.4147C45.1532 12.4174 45.4477 12.5177 45.7126 12.4566C45.9592 12.3994 46.1701 12.1964 46.2324 12.1065C46.3282 12.1964 46.4486 12.2666 46.5814 12.3055C46.6747 12.3384 46.7732 12.351 46.877 12.3433C46.9248 12.3427 46.9716 12.3376 47.0175 12.3278C47.2009 12.2888 47.367 12.1912 47.4904 12.05C47.6537 11.8715 47.7346 11.6434 47.718 11.4074L47.6947 11.005L47.6938 11.0004L47.6655 10.484C47.6534 10.247 47.5497 10.0294 47.3722 9.87069C47.1937 9.70735 46.9656 9.62644 46.7296 9.64307C46.6726 9.6456 46.6166 9.65271 46.5625 9.66899C46.5488 9.67191 46.5304 9.67581 46.5177 9.68332C46.3729 9.72368 46.2369 9.8053 46.128 9.92429C46.1126 9.94194 46.1018 9.95862 46.0899 9.97071C46.04 9.87111 45.9636 9.78193 45.8772 9.71402C45.8543 9.69125 45.8291 9.67091 45.802 9.65333C45.7677 9.62708 45.7419 9.61819 45.7307 9.61097C45.7262 9.61195 45.7252 9.60736 45.7252 9.60736C45.5623 9.51739 45.3679 9.48204 45.1688 9.51477C45.1036 9.52383 45.0404 9.54206 44.9827 9.5639C44.9388 9.58282 44.9005 9.60534 44.8621 9.62787C44.7507 9.68989 44.6579 9.77191 44.5838 9.87394C44.5485 9.8431 44.5086 9.81324 44.4697 9.78797C44.4141 9.75187 44.3549 9.72132 44.2976 9.69995C44.2662 9.68745 44.2312 9.68052 44.1998 9.66803C44.0735 9.63737 43.9392 9.63715 43.8072 9.67C43.6605 9.70118 43.5262 9.76808 43.4134 9.86873C43.3924 9.88277 43.377 9.90042 43.3616 9.91808C43.3225 9.95992 43.2891 10.0054 43.2566 10.0554C43.1988 10.1444 43.1577 10.2441 43.1359 10.3446C43.0634 10.2738 42.9735 10.2114 42.8737 10.1703C42.8508 10.1595 42.8266 10.1517 42.8017 10.1473C42.6993 10.1164 42.5952 10.1001 42.4914 10.1078C42.3922 10.1145 42.2959 10.135 42.2035 10.1738C41.983 10.2638 41.8177 10.4331 41.7247 10.6494C41.6373 10.8692 41.6392 11.1037 41.7282 11.3195Z" fill="url(#paint16_linear_41_394)"/>
<path d="M41.9205 11.7962C42.1687 12.1748 42.956 11.5953 43.2501 11.3555C43.2148 10.9413 43.2087 10.6646 43.2087 10.6646L43.2097 10.6692C43.2446 10.9014 43.509 11.0177 43.7069 10.8894C43.9295 10.7414 44.1926 10.604 44.3963 10.5703C44.4752 10.5584 44.5423 10.5585 44.6058 10.5641C44.6228 10.3736 44.6296 10.2476 44.6296 10.2476L44.6403 10.298C44.6826 10.452 44.7872 10.5831 44.9341 10.6429C45.503 10.8622 45.762 11.4493 45.3099 12.2307C45.5409 12.3254 45.8553 12.249 45.9951 12.0276C46.1757 11.7496 46.117 11.0001 46.135 10.4308C46.1756 10.8247 46.2071 11.5368 46.3187 11.7911C46.4511 12.0984 46.8195 12.2309 47.1239 12.0848C47.389 11.9565 47.6713 11.6617 47.7002 11.0086L47.7235 11.411C47.7401 11.6471 47.6592 11.8751 47.4958 12.0536C47.3725 12.1949 47.2064 12.2925 47.023 12.3315C46.9771 12.3412 46.9303 12.3464 46.8825 12.3469C46.7924 12.3517 46.7087 12.3408 46.6275 12.3197C46.6219 12.3161 46.6128 12.318 46.6072 12.3144C46.6016 12.3108 46.5925 12.3127 46.5869 12.3091C46.4563 12.2719 46.3365 12.2036 46.2379 12.1102C46.2228 12.1517 46.0263 12.3995 45.7374 12.4609C45.3385 12.5457 45.1485 12.4184 45.1485 12.4184C45.1167 12.4491 45.0839 12.4752 45.0502 12.4968C45.02 12.5128 44.0333 13.1011 44.1567 13.5014C44.172 13.5508 44.1781 13.6023 44.1843 13.6537L44.1891 13.6766C44.2007 13.7987 44.1976 13.9192 44.1787 14.0334L44.1732 14.0298C44.0446 13.9661 43.7943 14.096 43.7382 13.945C43.5254 13.372 43.3982 12.661 43.3246 12.0441L42.2101 12.4823L41.9205 11.7962Z" fill="#BA8F63"/>
<path d="M42.0183 13.3378C41.9808 12.0567 43.3618 11.2264 43.8793 10.9104C43.9432 10.8728 44.914 10.4125 45.2308 11.294C45.3696 11.6766 45.1632 12.171 44.8138 12.3986C43.8578 13.0187 43.9091 13.2378 43.9403 13.3846C44.0258 13.7641 43.9679 14.5288 43.6836 14.8145C43.6246 14.875 43.5525 14.919 43.4791 14.9346C43.4332 14.9444 43.3854 14.945 43.3357 14.9364C42.6317 14.8033 42.0429 14.085 42.0183 13.3378Z" fill="url(#paint17_linear_41_394)"/>
</g>
<defs>
<linearGradient id="paint0_linear_41_394" x1="42.8829" y1="39.0315" x2="46.6182" y2="56.6047" gradientUnits="userSpaceOnUse">
<stop stop-color="#CCA47A"/>
<stop offset="0.5" stop-color="#E0BB95"/>
</linearGradient>
<linearGradient id="paint1_linear_41_394" x1="30.9451" y1="41.569" x2="34.6804" y2="59.1422" gradientUnits="userSpaceOnUse">
<stop stop-color="#CCA47A"/>
<stop offset="0.5" stop-color="#E0BB95"/>
</linearGradient>
<radialGradient id="paint2_radial_41_394" cx="0" cy="0" r="1" gradientUnits="userSpaceOnUse" gradientTransform="translate(33.1484 22.5843) rotate(-12) scale(6.84984 8.152)">
<stop offset="0.794" stop-color="#BFA055" stop-opacity="0"/>
<stop offset="1" stop-color="#BFA055"/>
</radialGradient>
<linearGradient id="paint3_linear_41_394" x1="41.661" y1="25.0472" x2="45.498" y2="14.157" gradientUnits="userSpaceOnUse">
<stop stop-color="#CCA47A"/>
<stop offset="0.5" stop-color="#E0BB95"/>
</linearGradient>
<linearGradient id="paint4_linear_41_394" x1="26.2955" y1="28.2275" x2="18.3453" y2="19.9764" gradientUnits="userSpaceOnUse">
<stop stop-color="#CCA47A"/>
<stop offset="0.5" stop-color="#E0BB95"/>
</linearGradient>
<linearGradient id="paint5_linear_41_394" x1="34.2578" y1="27.8033" x2="36.7427" y2="39.4938" gradientUnits="userSpaceOnUse">
<stop stop-color="#2E4A3D"/>
<stop offset="0.705" stop-color="#2E4A3D"/>
<stop offset="1" stop-color="#2E4A3D"/>
</linearGradient>
<radialGradient id="paint6_radial_41_394" cx="0" cy="0" r="1" gradientUnits="userSpaceOnUse" gradientTransform="translate(33.3194 23.143) rotate(-12) scale(7.17516 8.70705)">
<stop offset="0.794" stop-color="#BFA055" stop-opacity="0"/>
<stop offset="1" stop-color="#BFA055"/>
</radialGradient>
<radialGradient id="paint7_radial_41_394" cx="0" cy="0" r="1" gradientUnits="userSpaceOnUse" gradientTransform="translate(18.7108 19.1631) rotate(-12) scale(2.66109)">
<stop stop-color="#CCA47A"/>
<stop offset="0.5" stop-color="#E0BB95"/>
</radialGradient>
<linearGradient id="paint8_linear_41_394" x1="31.2614" y1="13.7069" x2="31.8518" y2="16.4845" gradientUnits="userSpaceOnUse">
<stop stop-color="#BDBDBD"/>
<stop offset="1" stop-color="#757575"/>
</linearGradient>
<radialGradient id="paint9_radial_41_394" cx="0" cy="0" r="1" gradientUnits="userSpaceOnUse" gradientTransform="translate(10.8322 14.8394) rotate(78) scale(10.2901 5.78645)">
<stop offset="0.396" stop-color="#9E9E9E"/>
<stop offset="0.79" stop-color="#646464"/>
</radialGradient>
<radialGradient id="paint10_radial_41_394" cx="0" cy="0" r="1" gradientUnits="userSpaceOnUse" gradientTransform="translate(50.3946 6.4717) rotate(78) scale(10.2901 5.78645)">
<stop offset="0.396" stop-color="#9E9E9E"/>
<stop offset="0.79" stop-color="#646464"/>
</radialGradient>
<radialGradient id="paint11_radial_41_394" cx="0" cy="0" r="1" gradientUnits="userSpaceOnUse" gradientTransform="translate(6.35771 17.7898) rotate(-12) scale(2.21432 3.83009)">
<stop offset="0.441" stop-color="#9E9E9E"/>
<stop offset="0.985" stop-color="#646464"/>
</radialGradient>
<radialGradient id="paint12_radial_41_394" cx="0" cy="0" r="1" gradientUnits="userSpaceOnUse" gradientTransform="translate(55.6337 7.31604) rotate(168) scale(2.21432 3.83009)">
<stop offset="0.441" stop-color="#9E9E9E"/>
<stop offset="0.985" stop-color="#646464"/>
</radialGradient>
<linearGradient id="paint13_linear_41_394" x1="17.9936" y1="17.1246" x2="17.7188" y2="15.5949" gradientUnits="userSpaceOnUse">
<stop stop-color="#CCA47A"/>
<stop offset="0.5" stop-color="#E0BB95"/>
</linearGradient>
<linearGradient id="paint14_linear_41_394" x1="18.4511" y1="18.8034" x2="20.6222" y2="17.0706" gradientUnits="userSpaceOnUse">
<stop stop-color="#CCA47A"/>
<stop offset="0.469" stop-color="#E0BB95"/>
</linearGradient>
<radialGradient id="paint15_radial_41_394" cx="0" cy="0" r="1" gradientUnits="userSpaceOnUse" gradientTransform="translate(45.0015 13.575) rotate(168) scale(2.66109)">
<stop stop-color="#CCA47A"/>
<stop offset="0.5" stop-color="#E0BB95"/>
</radialGradient>
<linearGradient id="paint16_linear_41_394" x1="44.8273" y1="11.4209" x2="44.4562" y2="9.9116" gradientUnits="userSpaceOnUse">
<stop stop-color="#CCA47A"/>
<stop offset="0.5" stop-color="#E0BB95"/>
</linearGradient>
<linearGradient id="paint17_linear_41_394" x1="45.0923" y1="13.1407" x2="42.4041" y2="12.4407" gradientUnits="userSpaceOnUse">
<stop stop-color="#CCA47A"/>
<stop offset="0.469" stop-color="#E0BB95"/>
</linearGradient>
<clipPath id="clip0_41_394">
<rect width="60" height="60" fill="white" transform="translate(0.418213 12.8928) rotate(-12)"/>
</clipPath>
</defs>
</svg>
