<svg width="72" height="72" viewBox="0 0 72 72" fill="none" xmlns="http://www.w3.org/2000/svg">
<g clip-path="url(#clip0_41_380)">
<path d="M64.3135 27.6572C62.507 24.1391 55.0976 16.8375 40.2374 13.6788C25.3772 10.5202 15.6384 14.1769 12.5572 16.6561C9.47601 19.1353 8.61514 22.5991 8.2071 25.105C8.18245 25.2435 8.16152 25.4547 8.1521 25.7019C8.08914 27.4185 8.33649 28.7123 15.1224 30.1547C22.3622 31.6936 23.5437 30.0805 23.8673 28.7835C24.3929 26.6716 25.2444 23.9054 26.3294 23.5131C27.6101 23.0569 29.1048 20.782 38.3464 22.5978C47.5266 24.7024 47.9678 27.384 48.9521 28.3217C49.7883 29.1224 49.4375 31.9902 49.0577 34.1379C48.8258 35.4544 49.249 37.4085 56.4889 38.9474C63.2702 40.3888 64.0279 39.3039 64.6676 37.7147C64.7596 37.485 64.8218 37.2826 64.8602 37.147C65.4975 34.6899 66.1235 31.1808 64.3135 27.6572Z" fill="#C62828"/>
<path d="M56.0935 40.7852C51.7606 39.8642 46.8747 38.2985 47.574 34.3546C47.6056 34.1727 47.6729 33.9989 47.7719 33.8431C47.8708 33.6873 47.9996 33.5525 48.1508 33.4466C48.302 33.3407 48.4726 33.2658 48.6529 33.226C48.8332 33.1862 49.0195 33.1824 49.2012 33.2149C49.5674 33.281 49.8926 33.4891 50.106 33.7939C50.3195 34.0987 50.4039 34.4754 50.341 34.8421C50.2462 35.3779 50.6764 36.7584 56.6783 38.0341C63.7989 39.5477 64.9416 36.8769 64.9416 36.8769C65.1578 38.0921 65.353 42.3364 56.0935 40.7852ZM14.8199 31.533C19.1528 32.454 24.2532 33.0109 25.2184 29.1235C25.2635 28.9445 25.2728 28.7584 25.2457 28.5758C25.2187 28.3932 25.1558 28.2177 25.0608 28.0595C24.9657 27.9012 24.8404 27.7633 24.6919 27.6537C24.5434 27.544 24.3747 27.4648 24.1955 27.4205C23.8341 27.332 23.4523 27.3899 23.1334 27.5815C22.8144 27.7731 22.5841 28.0829 22.4924 28.4435C22.361 28.9715 21.4065 30.0577 15.4047 28.7819C8.28407 27.2684 8.32641 24.3637 8.32641 24.3637C7.66988 25.2881 5.72999 29.1839 14.8199 31.533ZM54.4913 23.3651C52.292 21.853 47.7524 19.4695 39.3846 17.6909C31.0169 15.9123 25.9049 16.2442 23.2761 16.7302C22.4137 16.8871 22.1104 17.9536 22.7494 18.5543C23.943 19.6801 25.3105 21.6337 25.1337 24.6296C25.127 24.7288 25.136 24.8218 25.145 24.9147C25.4974 24.2037 25.8881 23.6734 26.3183 23.5204C27.599 23.0642 29.0937 20.7893 38.3353 22.6051C47.5155 24.7098 47.9567 27.3914 48.9411 28.329C49.2719 28.6438 49.4131 29.2872 49.4458 30.0801C49.4919 29.9988 49.5379 29.9175 49.5721 29.8242C50.6282 27.0199 52.673 25.7869 54.2213 25.2438C55.0541 24.956 55.2153 23.8593 54.4913 23.3651Z" fill="#912221"/>
<path d="M62.7664 32.9066C62.3148 30.4097 61.7161 29.2809 59.2717 27.6591C58.3897 27.0739 57.9621 26.245 58.3253 25.7088C58.6885 25.1725 59.3559 25.0988 60.2953 25.5716C62.9336 26.8896 64.5046 29.9598 63.8562 33.0328C63.5476 34.4624 62.9432 33.8787 62.7664 32.9066ZM13.7081 17.6675C13.7586 18.2869 14.999 18.0426 16.4025 18.2259C18.3466 18.481 18.7839 19.1969 19.443 20.2667C19.9949 21.1651 21.0098 21.3952 21.494 20.9662C21.9827 20.5382 21.8779 19.9264 21.3909 18.9939C21.0306 18.2991 19.2344 16.4461 15.9621 16.6227C15.2187 16.6708 13.6553 17.0142 13.7081 17.6675Z" fill="#F44336"/>
<path d="M11.8178 45.6788L9.74295 55.4404C9.36091 57.2377 10.6007 59.0252 12.5081 59.4306L46.9603 66.7537C48.8677 67.1591 50.7274 66.0304 51.1094 64.2331L53.2321 54.2468L11.8178 45.6788Z" fill="#C62828"/>
<path d="M53.4324 52.8087C53.4324 52.8087 53.3912 35.3946 53.4391 32.3282C53.4871 29.2618 52.6672 28.1818 50.9765 27.7937C49.8388 27.5327 48.7995 26.4923 48.897 25.0418C48.9906 23.6096 49.1182 22.7838 49.1662 22.1518C49.2143 21.5199 49.4283 20.6261 48.5479 20.439L46.801 20.0676C46.0216 19.902 45.9252 20.0396 45.5629 21.1127C45.1997 22.1905 44.5732 24.2809 43.9161 25.253C43.3508 26.0865 42.352 25.9605 41.7927 25.8416L33.8651 24.1565C33.3103 24.0386 32.342 23.7465 32.1646 22.7552C31.9597 21.5998 32.2341 19.4297 32.3442 18.303C32.4507 17.1707 32.4177 17.0104 31.6382 16.8447L29.8913 16.4734C29.0155 16.2872 28.8474 17.1908 28.6297 17.7866C28.4166 18.3835 28.1973 19.1899 27.7002 20.5363C27.1947 21.9001 25.8268 22.4288 24.6812 22.2044C22.9789 21.8713 21.7905 22.5245 20.5871 25.3453C19.3837 28.1661 12.2631 44.0579 12.2631 44.0579C11.0926 47.1972 11.9275 48.7932 17.7414 50.029L45.9946 56.0344C51.8176 57.2721 53.2294 56.1537 53.4324 52.8087Z" fill="#FF4638"/>
<path d="M47.3201 35.5945L46.206 32.4489L42.5663 30.9947L41.0163 31.5231C40.6544 31.6474 40.2585 31.5489 39.9896 31.2809L39.3783 30.6621L34.138 29.5914L33.5085 29.8697C33.1434 30.0317 32.7141 29.9549 32.4268 29.6829L31.3343 28.6456L24.8533 30.8191L20.3185 42.0754L19.9655 44.2095C19.8923 44.6444 20.1778 45.0597 20.6088 45.1514L45.3727 50.4151C45.8037 50.5067 46.2335 50.2434 46.3434 49.8163L46.889 47.7231L47.3201 35.5945Z" fill="#4E342E"/>
<path d="M41.4698 40.8875L46.197 41.8923C46.6418 41.9869 47.0668 41.6555 47.0815 41.2034L47.177 38.6119C47.1905 38.2554 46.9451 37.9444 46.5966 37.8703L42.0116 36.8958C41.5806 36.8042 41.1705 37.11 41.1303 37.5471L40.8972 40.1093C40.8579 40.4747 41.1076 40.8105 41.4698 40.8875ZM33.8189 33.4819L38.1059 34.3931C38.514 34.4798 38.9172 34.2061 38.981 33.7932L39.4188 31.0349C39.4483 30.8496 39.4055 30.6601 39.2992 30.5054C39.193 30.3508 39.0313 30.243 38.8478 30.2042L34.845 29.3534C34.4644 29.2725 34.0847 29.5033 33.9855 29.88L33.2635 32.5779C33.1538 32.9811 33.4108 33.3951 33.8189 33.4819ZM36.9541 42.089L31.7409 40.9809C31.3604 40.9 30.9806 41.1308 30.8814 41.5074L30.2219 43.979C30.1122 44.3822 30.3693 44.7963 30.7773 44.883L36.2473 46.0457C36.6554 46.1324 37.0586 45.8587 37.1224 45.4458L37.5252 42.9196C37.5547 42.7343 37.5119 42.5448 37.4056 42.3902C37.2994 42.2356 37.1377 42.1278 36.9541 42.089ZM32.3685 38.953L37.2011 39.9802C37.6092 40.0669 38.0124 39.7932 38.0762 39.3803L38.479 36.8541C38.5085 36.6689 38.4657 36.4793 38.3594 36.3247C38.2532 36.1701 38.0915 36.0623 37.9079 36.0235L33.3321 35.0509C32.9515 34.97 32.5718 35.2008 32.4725 35.5774L31.813 38.049C31.7079 38.4532 31.9604 38.8662 32.3685 38.953ZM27.2155 40.019L22.2269 38.9586C21.8784 38.8846 21.5268 39.0734 21.3951 39.4L20.4284 41.8063C20.2569 42.2299 20.5114 42.7009 20.9561 42.7954L26.0868 43.886C26.449 43.963 26.8137 43.7578 26.932 43.4043L27.7612 40.9688C27.8967 40.5567 27.6465 40.1106 27.2155 40.019ZM23.3175 37.0292L28.0998 38.0456C28.462 38.1226 28.8267 37.9174 28.9449 37.564L29.7741 35.1285C29.9152 34.7128 29.665 34.2666 29.234 34.175L24.5939 33.1887C24.2454 33.1147 23.8938 33.3035 23.7621 33.6301L22.7953 36.0364C22.6192 36.459 22.8728 36.9346 23.3175 37.0292ZM42.0124 35.2235L46.4416 36.1649C46.8863 36.2594 47.3114 35.9281 47.326 35.4759L47.4291 32.6465C47.4426 32.2899 47.1972 31.979 46.8487 31.9049L42.5708 30.9956C42.1398 30.904 41.7298 31.2098 41.6896 31.6469L41.4353 34.4442C41.4005 34.8106 41.6502 35.1465 42.0124 35.2235ZM30.7576 32.1698L31.663 29.5109C31.8041 29.0952 31.5539 28.6491 31.1229 28.5575L26.7854 27.6355C26.437 27.5615 26.0853 27.7503 25.9536 28.0769L24.8969 30.7037C24.7254 31.1273 24.9799 31.5983 25.4246 31.6928L29.9134 32.6469C30.2746 32.7285 30.6393 32.5233 30.7576 32.1698ZM40.5938 43.7013L40.3607 46.2635C40.3249 46.6345 40.5746 46.9703 40.9369 47.0473L46.0079 48.1252C46.4527 48.2197 46.8777 47.8883 46.8924 47.4362L46.988 44.8447C47.0014 44.4882 46.756 44.1772 46.4076 44.1032L41.474 43.0545C41.0486 42.9593 40.634 43.2641 40.5938 43.7013Z" fill="#F5F5F5"/>
</g>
<defs>
<clipPath id="clip0_41_380">
<rect width="60" height="60" fill="white" transform="translate(12.4747) rotate(12)"/>
</clipPath>
</defs>
</svg>
